<svg width="46" height="42" viewBox="0 0 46 42" fill="none" xmlns="http://www.w3.org/2000/svg">
<path d="M9 0C4.04148 0 0 4.04148 0 9V33C0 37.9585 4.04148 42 9 42H33C37.9585 42 42 37.9585 42 33V9C42 4.04148 37.9585 0 33 0H9ZM9 2H33C36.8775 2 40 5.12252 40 9V33C40 36.8775 36.8775 40 33 40H9C5.12252 40 2 36.8775 2 33V9C2 5.12252 5.12252 2 9 2ZM9 7C7.70833 7 6.67692 7.50238 6.00195 8.26172C5.32698 9.02106 5 10.0139 5 11C5 11.9861 5.32698 12.9789 6.00195 13.7383C6.67692 14.4976 7.70833 15 9 15C10.2917 15 11.3231 14.4976 11.998 13.7383C12.673 12.9789 13 11.9861 13 11C13 10.0139 12.673 9.02106 11.998 8.26172C11.3231 7.50238 10.2917 7 9 7ZM9 8C10.0417 8 10.7603 8.37262 11.252 8.92578C11.7437 9.47894 12 10.2361 12 11C12 11.7639 11.7437 12.5211 11.252 13.0742C10.7603 13.6274 10.0417 14 9 14C7.95833 14 7.23974 13.6274 6.74805 13.0742C6.25635 12.5211 6 11.7639 6 11C6 10.2361 6.25635 9.47894 6.74805 8.92578C7.23974 8.37262 7.95833 8 9 8ZM9 9C8.46957 9 7.96086 9.21071 7.58579 9.58579C7.21071 9.96086 7 10.4696 7 11C7 11.5304 7.21071 12.0391 7.58579 12.4142C7.96086 12.7893 8.46957 13 9 13C9.53043 13 10.0391 12.7893 10.4142 12.4142C10.7893 12.0391 11 11.5304 11 11C11 10.4696 10.7893 9.96086 10.4142 9.58579C10.0391 9.21071 9.53043 9 9 9ZM17 10C16.8675 9.99813 16.7359 10.0226 16.613 10.072C16.49 10.1214 16.3781 10.1948 16.2837 10.2878C16.1893 10.3809 16.1144 10.4918 16.0632 10.614C16.0121 10.7363 15.9858 10.8675 15.9858 11C15.9858 11.1325 16.0121 11.2637 16.0632 11.386C16.1144 11.5082 16.1893 11.6191 16.2837 11.7122C16.3781 11.8052 16.49 11.8786 16.613 11.928C16.7359 11.9774 16.8675 12.0019 17 12H35C35.1325 12.0019 35.2641 11.9774 35.387 11.928C35.51 11.8786 35.6219 11.8052 35.7163 11.7122C35.8107 11.6191 35.8856 11.5082 35.9368 11.386C35.9879 11.2637 36.0142 11.1325 36.0142 11C36.0142 10.8675 35.9879 10.7363 35.9368 10.614C35.8856 10.4918 35.8107 10.3809 35.7163 10.2878C35.6219 10.1948 35.51 10.1214 35.387 10.072C35.2641 10.0226 35.1325 9.99813 35 10H17ZM9 17C7.70833 17 6.67692 17.5024 6.00195 18.2617C5.32698 19.0211 5 20.0139 5 21C5 21.9861 5.32698 22.9789 6.00195 23.7383C6.67692 24.4976 7.70833 25 9 25C10.2917 25 11.3231 24.4976 11.998 23.7383C12.673 22.9789 13 21.9861 13 21C13 20.0139 12.673 19.0211 11.998 18.2617C11.3231 17.5024 10.2917 17 9 17ZM9 18C10.0417 18 10.7603 18.3726 11.252 18.9258C11.7437 19.4789 12 20.2361 12 21C12 21.7639 11.7437 22.5211 11.252 23.0742C10.7603 23.6274 10.0417 24 9 24C7.95833 24 7.23974 23.6274 6.74805 23.0742C6.25635 22.5211 6 21.7639 6 21C6 20.2361 6.25635 19.4789 6.74805 18.9258C7.23974 18.3726 7.95833 18 9 18ZM9 19C8.46957 19 7.96086 19.2107 7.58579 19.5858C7.21071 19.9609 7 20.4696 7 21C7 21.5304 7.21071 22.0391 7.58579 22.4142C7.96086 22.7893 8.46957 23 9 23C9.53043 23 10.0391 22.7893 10.4142 22.4142C10.7893 22.0391 11 21.5304 11 21C11 20.4696 10.7893 19.9609 10.4142 19.5858C10.0391 19.2107 9.53043 19 9 19ZM17 20C16.8675 19.9981 16.7359 20.0226 16.613 20.072C16.49 20.1214 16.3781 20.1948 16.2837 20.2878C16.1893 20.3809 16.1144 20.4918 16.0632 20.614C16.0121 20.7363 15.9858 20.8675 15.9858 21C15.9858 21.1325 16.0121 21.2637 16.0632 21.386C16.1144 21.5082 16.1893 21.6191 16.2837 21.7122C16.3781 21.8052 16.49 21.8786 16.613 21.928C16.7359 21.9774 16.8675 22.0019 17 22H35C35.1325 22.0019 35.2641 21.9774 35.387 21.928C35.51 21.8786 35.6219 21.8052 35.7163 21.7122C35.8107 21.6191 35.8856 21.5082 35.9368 21.386C35.9879 21.2637 36.0142 21.1325 36.0142 21C36.0142 20.8675 35.9879 20.7363 35.9368 20.614C35.8856 20.4918 35.8107 20.3809 35.7163 20.2878C35.6219 20.1948 35.51 20.1214 35.387 20.072C35.2641 20.0226 35.1325 19.9981 35 20H17ZM9 27C7.70833 27 6.67692 27.5024 6.00195 28.2617C5.32698 29.0211 5 30.0139 5 31C5 31.9861 5.32698 32.9789 6.00195 33.7383C6.67692 34.4976 7.70833 35 9 35C10.2917 35 11.3231 34.4976 11.998 33.7383C12.673 32.9789 13 31.9861 13 31C13 30.0139 12.673 29.0211 11.998 28.2617C11.3231 27.5024 10.2917 27 9 27ZM9 28C10.0417 28 10.7603 28.3726 11.252 28.9258C11.7437 29.4789 12 30.2361 12 31C12 31.7639 11.7437 32.5211 11.252 33.0742C10.7603 33.6274 10.0417 34 9 34C7.95833 34 7.23974 33.6274 6.74805 33.0742C6.25635 32.5211 6 31.7639 6 31C6 30.2361 6.25635 29.4789 6.74805 28.9258C7.23974 28.3726 7.95833 28 9 28ZM9 29C8.46957 29 7.96086 29.2107 7.58579 29.5858C7.21071 29.9609 7 30.4696 7 31C7 31.5304 7.21071 32.0391 7.58579 32.4142C7.96086 32.7893 8.46957 33 9 33C9.53043 33 10.0391 32.7893 10.4142 32.4142C10.7893 32.0391 11 31.5304 11 31C11 30.4696 10.7893 29.9609 10.4142 29.5858C10.0391 29.2107 9.53043 29 9 29ZM17 30C16.8675 29.9981 16.7359 30.0226 16.613 30.072C16.49 30.1214 16.3781 30.1948 16.2837 30.2878C16.1893 30.3809 16.1144 30.4918 16.0632 30.614C16.0121 30.7363 15.9858 30.8675 15.9858 31C15.9858 31.1325 16.0121 31.2637 16.0632 31.386C16.1144 31.5082 16.1893 31.6191 16.2837 31.7122C16.3781 31.8052 16.49 31.8786 16.613 31.928C16.7359 31.9774 16.8675 32.0019 17 32H35C35.1325 32.0019 35.2641 31.9774 35.387 31.928C35.51 31.8786 35.6219 31.8052 35.7163 31.7122C35.8107 31.6191 35.8856 31.5082 35.9368 31.386C35.9879 31.2637 36.0142 31.1325 36.0142 31C36.0142 30.8675 35.9879 30.7363 35.9368 30.614C35.8856 30.4918 35.8107 30.3809 35.7163 30.2878C35.6219 30.1948 35.51 30.1214 35.387 30.072C35.2641 30.0226 35.1325 29.9981 35 30H17Z" fill="black"/>
<path d="M44 19L23 40M44 40L23 19" stroke="#FF3300" stroke-width="4" stroke-linecap="round"/>
</svg>
