<svg width="55" height="50" viewBox="0 0 55 50" fill="none" xmlns="http://www.w3.org/2000/svg">
<path d="M13 4C8.04148 4 4 8.04148 4 13V37C4 41.9585 8.04148 46 13 46H37C41.9585 46 46 41.9585 46 37V13C46 8.04148 41.9585 4 37 4H13ZM13 6H37C40.8775 6 44 9.12252 44 13V37C44 40.8775 40.8775 44 37 44H13C9.12252 44 6 40.8775 6 37V13C6 9.12252 9.12252 6 13 6ZM13 11C11.7083 11 10.6769 11.5024 10.002 12.2617C9.32698 13.0211 9 14.0139 9 15C9 15.9861 9.32698 16.9789 10.002 17.7383C10.6769 18.4976 11.7083 19 13 19C14.2917 19 15.3231 18.4976 15.998 17.7383C16.673 16.9789 17 15.9861 17 15C17 14.0139 16.673 13.0211 15.998 12.2617C15.3231 11.5024 14.2917 11 13 11ZM13 12C14.0417 12 14.7603 12.3726 15.252 12.9258C15.7437 13.4789 16 14.2361 16 15C16 15.7639 15.7437 16.5211 15.252 17.0742C14.7603 17.6274 14.0417 18 13 18C11.9583 18 11.2397 17.6274 10.748 17.0742C10.2563 16.5211 10 15.7639 10 15C10 14.2361 10.2563 13.4789 10.748 12.9258C11.2397 12.3726 11.9583 12 13 12ZM13 13C12.4696 13 11.9609 13.2107 11.5858 13.5858C11.2107 13.9609 11 14.4696 11 15C11 15.5304 11.2107 16.0391 11.5858 16.4142C11.9609 16.7893 12.4696 17 13 17C13.5304 17 14.0391 16.7893 14.4142 16.4142C14.7893 16.0391 15 15.5304 15 15C15 14.4696 14.7893 13.9609 14.4142 13.5858C14.0391 13.2107 13.5304 13 13 13ZM21 14C20.8675 13.9981 20.7359 14.0226 20.613 14.072C20.49 14.1214 20.3781 14.1948 20.2837 14.2878C20.1893 14.3809 20.1144 14.4918 20.0632 14.614C20.0121 14.7363 19.9858 14.8675 19.9858 15C19.9858 15.1325 20.0121 15.2637 20.0632 15.386C20.1144 15.5082 20.1893 15.6191 20.2837 15.7122C20.3781 15.8052 20.49 15.8786 20.613 15.928C20.7359 15.9774 20.8675 16.0019 21 16H39C39.1325 16.0019 39.2641 15.9774 39.387 15.928C39.51 15.8786 39.6219 15.8052 39.7163 15.7122C39.8107 15.6191 39.8856 15.5082 39.9368 15.386C39.9879 15.2637 40.0142 15.1325 40.0142 15C40.0142 14.8675 39.9879 14.7363 39.9368 14.614C39.8856 14.4918 39.8107 14.3809 39.7163 14.2878C39.6219 14.1948 39.51 14.1214 39.387 14.072C39.2641 14.0226 39.1325 13.9981 39 14H21ZM13 21C11.7083 21 10.6769 21.5024 10.002 22.2617C9.32698 23.0211 9 24.0139 9 25C9 25.9861 9.32698 26.9789 10.002 27.7383C10.6769 28.4976 11.7083 29 13 29C14.2917 29 15.3231 28.4976 15.998 27.7383C16.673 26.9789 17 25.9861 17 25C17 24.0139 16.673 23.0211 15.998 22.2617C15.3231 21.5024 14.2917 21 13 21ZM13 22C14.0417 22 14.7603 22.3726 15.252 22.9258C15.7437 23.4789 16 24.2361 16 25C16 25.7639 15.7437 26.5211 15.252 27.0742C14.7603 27.6274 14.0417 28 13 28C11.9583 28 11.2397 27.6274 10.748 27.0742C10.2563 26.5211 10 25.7639 10 25C10 24.2361 10.2563 23.4789 10.748 22.9258C11.2397 22.3726 11.9583 22 13 22ZM13 23C12.4696 23 11.9609 23.2107 11.5858 23.5858C11.2107 23.9609 11 24.4696 11 25C11 25.5304 11.2107 26.0391 11.5858 26.4142C11.9609 26.7893 12.4696 27 13 27C13.5304 27 14.0391 26.7893 14.4142 26.4142C14.7893 26.0391 15 25.5304 15 25C15 24.4696 14.7893 23.9609 14.4142 23.5858C14.0391 23.2107 13.5304 23 13 23ZM21 24C20.8675 23.9981 20.7359 24.0226 20.613 24.072C20.49 24.1214 20.3781 24.1948 20.2837 24.2878C20.1893 24.3809 20.1144 24.4918 20.0632 24.614C20.0121 24.7363 19.9858 24.8675 19.9858 25C19.9858 25.1325 20.0121 25.2637 20.0632 25.386C20.1144 25.5082 20.1893 25.6191 20.2837 25.7122C20.3781 25.8052 20.49 25.8786 20.613 25.928C20.7359 25.9774 20.8675 26.0019 21 26H39C39.1325 26.0019 39.2641 25.9774 39.387 25.928C39.51 25.8786 39.6219 25.8052 39.7163 25.7122C39.8107 25.6191 39.8856 25.5082 39.9368 25.386C39.9879 25.2637 40.0142 25.1325 40.0142 25C40.0142 24.8675 39.9879 24.7363 39.9368 24.614C39.8856 24.4918 39.8107 24.3809 39.7163 24.2878C39.6219 24.1948 39.51 24.1214 39.387 24.072C39.2641 24.0226 39.1325 23.9981 39 24H21ZM13 31C11.7083 31 10.6769 31.5024 10.002 32.2617C9.32698 33.0211 9 34.0139 9 35C9 35.9861 9.32698 36.9789 10.002 37.7383C10.6769 38.4976 11.7083 39 13 39C14.2917 39 15.3231 38.4976 15.998 37.7383C16.673 36.9789 17 35.9861 17 35C17 34.0139 16.673 33.0211 15.998 32.2617C15.3231 31.5024 14.2917 31 13 31ZM13 32C14.0417 32 14.7603 32.3726 15.252 32.9258C15.7437 33.4789 16 34.2361 16 35C16 35.7639 15.7437 36.5211 15.252 37.0742C14.7603 37.6274 14.0417 38 13 38C11.9583 38 11.2397 37.6274 10.748 37.0742C10.2563 36.5211 10 35.7639 10 35C10 34.2361 10.2563 33.4789 10.748 32.9258C11.2397 32.3726 11.9583 32 13 32ZM13 33C12.4696 33 11.9609 33.2107 11.5858 33.5858C11.2107 33.9609 11 34.4696 11 35C11 35.5304 11.2107 36.0391 11.5858 36.4142C11.9609 36.7893 12.4696 37 13 37C13.5304 37 14.0391 36.7893 14.4142 36.4142C14.7893 36.0391 15 35.5304 15 35C15 34.4696 14.7893 33.9609 14.4142 33.5858C14.0391 33.2107 13.5304 33 13 33ZM21 34C20.8675 33.9981 20.7359 34.0226 20.613 34.072C20.49 34.1214 20.3781 34.1948 20.2837 34.2878C20.1893 34.3809 20.1144 34.4918 20.0632 34.614C20.0121 34.7363 19.9858 34.8675 19.9858 35C19.9858 35.1325 20.0121 35.2637 20.0632 35.386C20.1144 35.5082 20.1893 35.6191 20.2837 35.7122C20.3781 35.8052 20.49 35.8786 20.613 35.928C20.7359 35.9774 20.8675 36.0019 21 36H39C39.1325 36.0019 39.2641 35.9774 39.387 35.928C39.51 35.8786 39.6219 35.8052 39.7163 35.7122C39.8107 35.6191 39.8856 35.5082 39.9368 35.386C39.9879 35.2637 40.0142 35.1325 40.0142 35C40.0142 34.8675 39.9879 34.7363 39.9368 34.614C39.8856 34.4918 39.8107 34.3809 39.7163 34.2878C39.6219 34.1948 39.51 34.1214 39.387 34.072C39.2641 34.0226 39.1325 33.9981 39 34H21Z" fill="black"/>
<path d="M53.7474 24.9392L53.9122 24.5656C53.5355 24.1886 53.0773 24 52.5387 24C51.9997 24 51.5415 24.1886 51.1648 24.5656L34.9998 40.6268L26.4981 32.6295C26.121 32.2524 25.6631 32.064 25.1246 32.064C24.5857 32.064 23.9425 32.1526 23.5653 32.5297H23.8574C23.5653 32.6295 23 33.0881 23 33.627C23 34.1654 23.1882 34.6232 23.5653 35.0002L30.8784 42.3131L33.626 45.0605C34.003 45.4378 34.461 45.6262 34.9998 45.6262C35.5383 45.6262 35.9963 45.4373 36.3735 45.0605L39.1211 42.3131L53.7474 27.6868C54.1242 27.3097 54.313 26.8517 54.313 26.3129C54.3133 25.7744 54.1242 25.3163 53.7474 24.9392Z" fill="#00FF1A"/>
</svg>
